<svg xmlns="http://www.w3.org/2000/svg" width="900" height="286" viewBox="0 0 900 286" role="img" aria-label="GitHub profile highlights"><defs><linearGradient id="ring" x1="0" x2="1"><stop stop-color="#54d6e8"/><stop offset="1" stop-color="#8b5cf6"/></linearGradient><style>text{font-family:-apple-system,BlinkMacSystemFont,Segoe UI,sans-serif}.heading{font-size:19px;font-weight:700;fill:#e5e7eb}.metric{font-size:13px;font-weight:800;fill:#f8fafc}.label{font-size:13px;font-weight:800;fill:#a5b4fc}.note{font-size:11px;fill:#94a3b8}.metric-card{opacity:0;animation:card-in .55s cubic-bezier(.2,.8,.2,1) forwards}.metric-ring{stroke-dasharray:132;stroke-dashoffset:132;animation:ring-in 1s ease-out .35s forwards}@keyframes card-in{from{opacity:0}to{opacity:1}}@keyframes ring-in{to{stroke-dashoffset:0}}@media(prefers-reduced-motion:reduce){.metric-card{opacity:1;animation:none}.metric-ring{stroke-dashoffset:0;animation:none}}</style></defs><rect width="900" height="286" rx="18" fill="#0f172a"/><text class="heading" x="18" y="32">GitHub highlights · @Neon1204</text><g class="metric-card" style="animation-delay:0.00s" transform="translate(18 54)"><rect width="270" height="94" rx="14" fill="#111827" stroke="#334155"/><circle class="metric-ring" cx="35" cy="35" r="21" fill="none" stroke="url(#ring)" stroke-width="5"/><text class="metric" x="35" y="41" text-anchor="middle">39</text><text class="label" x="67" y="31">COMMITS</text><text class="note" x="67" y="54">this contribution year</text></g><g class="metric-card" style="animation-delay:0.12s" transform="translate(306 54)"><rect width="270" height="94" rx="14" fill="#111827" stroke="#334155"/><circle class="metric-ring" cx="35" cy="35" r="21" fill="none" stroke="url(#ring)" stroke-width="5"/><text class="metric" x="35" y="41" text-anchor="middle">0</text><text class="label" x="67" y="31">STARS</text><text class="note" x="67" y="54">across public repositories</text></g><g class="metric-card" style="animation-delay:0.24s" transform="translate(594 54)"><rect width="270" height="94" rx="14" fill="#111827" stroke="#334155"/><circle class="metric-ring" cx="35" cy="35" r="21" fill="none" stroke="url(#ring)" stroke-width="5"/><text class="metric" x="35" y="41" text-anchor="middle">18</text><text class="label" x="67" y="31">REPOS</text><text class="note" x="67" y="54">public projects</text></g><g class="metric-card" style="animation-delay:0.36s" transform="translate(18 166)"><rect width="270" height="94" rx="14" fill="#111827" stroke="#334155"/><circle class="metric-ring" cx="35" cy="35" r="21" fill="none" stroke="url(#ring)" stroke-width="5"/><text class="metric" x="35" y="41" text-anchor="middle">7</text><text class="label" x="67" y="31">FOLLOWERS</text><text class="note" x="67" y="54">GitHub community</text></g><g class="metric-card" style="animation-delay:0.48s" transform="translate(306 166)"><rect width="270" height="94" rx="14" fill="#111827" stroke="#334155"/><circle class="metric-ring" cx="35" cy="35" r="21" fill="none" stroke="url(#ring)" stroke-width="5"/><text class="metric" x="35" y="41" text-anchor="middle">0</text><text class="label" x="67" y="31">PULL REQUESTS</text><text class="note" x="67" y="54">public contributions</text></g><g class="metric-card" style="animation-delay:0.60s" transform="translate(594 166)"><rect width="270" height="94" rx="14" fill="#111827" stroke="#334155"/><circle class="metric-ring" cx="35" cy="35" r="21" fill="none" stroke="url(#ring)" stroke-width="5"/><text class="metric" x="35" y="41" text-anchor="middle">0</text><text class="label" x="67" y="31">ISSUES</text><text class="note" x="67" y="54">public contributions</text></g></svg>